Patient4_TMGait_0pt2_02_right_25_EMG.mot
version=1
nRows=36
nColumns=33
inDegrees=no
endheader
time	1LAddLong	2LGlutMax	3LGlutMed	4LIliopsoas	5LSemiMemb	6LBicFemLong	7LRecFem	8LVastMed	9LVastLat	10LGasMed	11LTibAnt	12lTibPost	13LPeroneusLong	14LSol	15LExtDigLong	16LFlexDigLong	17RAddLong	18RGlutMax	19RGlutMed	20RIliopsoas	21RSemiMemb	22RBicFemLong	23RRecFem	24RVastMed	25RVastLat	26RGasMed	27RTibAnt	28RTibPost	29RPeroneusLong	30RSol	31RExtDigLong	32RFlexDigLong
55.01	-0.009613	0.029755	0.041962	0.010986	0.036011	-0.045929	-0.11124	0.005951	-0.000458	0.21912	0.034027	0.00061	0.71289	-0.007782	0.011749	-0.008392	0.082397	0.078583	0.5043	-0.003662	0.039825	-0.045776	0.00473	0.065155	0.006866	-0.015564	-0.021057	-0.009766	-0.062561	-0.086365	0.000305	-0.016479
55.011	0.001373	-0.080414	-0.14999	0.018158	0.041962	-0.016174	-0.09201	-0.00473	0.007172	0.24139	0.057373	-0.008545	0.40009	0.057983	-0.010681	0.001831	0.14236	0.13245	0.31509	0.028381	0.012665	-0.053711	-0.052643	0.040283	0.001831	-0.016327	0.007629	-0.009613	0.068665	-0.0737	-0.001221	-0.010681
55.012	0.020142	-0.10162	-0.025787	0.014343	0.017548	-0.093842	-0.086823	-0.01709	0.037842	0.074921	0.036163	-0.005798	-0.35141	-0.038452	-0.079956	0.002594	0.11002	0.20844	-0.17548	-0.016022	0.018921	-0.071716	-0.095215	0.022736	0.012207	-0.016174	0.025635	-0.007629	0.13947	-0.050964	0.00412	-0.013733
55.013	0.000763	-0.13412	-0.096283	-0.010529	0.005646	-0.28381	-0.0737	-0.020752	0.045776	-0.087128	0.005798	-0.019836	-0.43198	0.11505	0.054169	0.006409	0.081635	0.25604	-0.20844	-0.082092	0.02182	-0.06897	-0.10071	0.040436	0.006714	-0.016174	0.027618	-0.004272	0.060883	-0.027466	0.003204	-0.012512
55.014	-0.007782	-0.19608	-0.15243	-0.023499	0	-0.64179	-0.028992	-0.0354	0.12497	0.028076	-0.029297	-0.017242	0.2005	0.043488	-0.078125	0.023651	0.067596	0.23697	-0.16266	0.004425	0.023499	-0.046082	-0.10208	0.029449	-0.00412	-0.015717	0.010529	-0.008545	0.056763	-0.040894	0.000153	-0.00473
55.015	-0.010071	-0.1236	-0.10941	-0.021515	-0.009613	-0.56305	0.022125	-0.023041	0.11124	0.048523	0.006866	0.002136	0.000763	-0.24674	-0.14343	0.033264	0.089417	0.25207	-0.18036	-0.027924	0.027008	-0.051575	-0.10941	-0.000153	0.012665	-0.010529	-0.000458	-0.00946	0.37231	-0.040588	0.001831	-0.005493
55.016	-0.002747	-0.13931	-0.11093	-0.034027	-0.032196	-0.52445	0.06546	-0.014191	-0.041046	-0.07782	-0.015259	0.004883	0.1593	-0.071564	-0.088959	0.005188	0.062561	0.27863	-0.10086	-0.081787	0.027313	-0.026093	-0.15945	-0.007629	0.019836	-0.009766	-0.021362	-0.003662	0.56397	-0.049286	0	-0.009003
55.017	-0.005646	-0.14923	-0.048828	-0.020142	-0.054932	-0.25681	0.038147	-0.003815	-0.050354	-0.18402	-0.020905	0.016327	0.65704	0.34119	0.082703	-0.018768	0.080414	0.25284	-0.1297	-0.074005	0.036163	-0.018158	-0.14084	-0.042572	0.023804	-0.010071	-0.028992	-0.00351	-0.15671	-0.06012	-0.000763	-0.015411
55.018	-0.001831	-0.14511	0.15335	-0.023346	-0.025787	-0.15366	-0.043488	-0.002441	0.072174	-0.12466	-0.044708	0.017548	-0.15366	0.50736	0.052338	-0.022278	0.10025	0.26352	-0.031128	-0.053406	0.053864	-0.004272	-0.079956	0.027771	0.028076	-0.012665	0.014038	-0.001373	-0.18601	-0.03952	-0.002289	-0.01358
55.019	0.020142	-0.13809	0.20721	0.027924	0.042267	-0.10239	-0.036163	0.006409	0.1973	-0.13367	-0.006104	0.025177	-0.82581	0.38345	0.003357	-0.031433	0.075378	0.2887	0.13123	-0.04364	0.092773	-0.001984	-0.087891	0.019989	0.029144	-0.017548	0.021667	-0.001221	-0.22308	-0.030365	-0.000305	-0.020905
55.02	0.022278	-0.066681	0.14114	0.002594	0.046387	-0.053101	0.06485	0.006256	0.16174	-0.17548	-0.00351	0.00473	-0.41	0.033417	-0.057526	-0.061035	-0.023193	0.3035	-0.000305	-0.009766	0.10468	-0.002899	-0.10712	0.047302	0.04715	-0.007782	0.025024	-0.01236	-0.16235	0.007019	-0.003357	-0.001526
55.021	0.019684	-0.02533	0.053406	0.014038	0.023346	-0.00412	0.10574	0.006256	0.080109	-0.1831	-0.00885	-0.000916	-0.13351	-0.17197	-0.042725	-0.012054	-0.079651	0.29083	-0.063019	0.02182	0.096893	0.010681	-0.1088	0.049591	0.036163	-0.013123	0.028839	-0.000305	0.037079	-0.023041	0.001068	-0.014496
55.022	0.010376	0.027161	-0.007629	-0.008392	0.022125	0.082092	0.10925	0.015717	0.059967	0.068817	0.00946	-0.001373	-0.26291	-0.242	-0.010986	0.11154	-0.07431	0.27878	-0.18082	-0.005493	0.10147	-0.003815	-0.069885	0.010986	0.021057	-0.000458	0.011292	0.000458	-0.21255	-0.014496	0.010681	-0.015717
55.023	-0.009766	0.039368	-0.021667	-0.00824	0.003052	0.088654	0.17883	0.014038	-0.009918	0.17059	-0.028381	-0.002441	-0.22766	-0.44144	0.010681	0.047607	-0.036926	0.23239	-0.094757	0.021667	0.1207	-0.000458	-0.063019	0.031891	0.034485	-0.010529	0.004883	-0.004425	-0.34332	-0.011139	-0.000153	-0.016327
55.024	-0.009308	-0.04837	-0.041504	0.013275	-0.024109	0.007172	0.15366	0.029755	-0.13702	0.047302	-0.021973	-0.000153	-0.13657	-0.081787	0.027771	-0.008698	-0.037079	0.27237	-0.019836	0.10544	0.18158	0.000305	-0.098419	0.052948	0.019836	-0.011597	0.007477	-0.009918	-0.23666	0.037689	0.000153	-0.014954
55.025	-0.021362	-0.10239	-0.077667	0.017242	-0.050812	-0.000153	0.11887	0.03006	-0.25177	-0.032959	0.005493	-0.001984	0.39795	0.028687	0.003815	-0.00061	-0.075378	0.25543	-0.027161	0.13901	0.18509	0.006714	-0.11078	0.070953	0.024109	-0.009003	-0.019836	-0.003662	0.57846	0.044708	-0.000458	-0.016937
55.026	-0.034485	-0.099335	0.010376	0.001984	-0.06958	-0.036469	0.032654	0.034637	-0.30289	-0.074921	0.026398	0.001831	0.1236	0.088654	-0.011902	-0.015869	-0.12253	0.29892	-0.3157	0.073242	0.18402	-0.001526	-0.034485	0.067902	0.028992	-0.011139	-0.025482	-0.004578	0.45975	0.019531	-0.010223	-0.01297
55.027	-0.025177	-0.05722	0.11719	-0.028229	0.000153	-0.22308	-0.095673	0.029297	-0.24307	-0.068665	0.017853	-0.000305	0.097504	0.14435	-0.06958	0.001984	-0.12405	0.33539	-0.25955	-0.11078	0.18188	-0.02655	-0.070038	0.071564	0.016632	-0.003662	0.001526	-0.005188	0.10895	0.019684	-0.001221	-0.009766
55.028	-0.023804	-0.060272	0.095825	-0.007935	0.024109	-0.08194	-0.27329	0.041809	-0.23209	-0.13321	0.019684	-0.014801	-0.00351	0.15121	-0.063324	-0.008392	-0.11383	0.36377	0.24277	-0.22293	0.20157	-0.006561	-0.088196	0.066986	0.017853	-0.010834	0.010071	-0.001221	0.051575	-0.002441	0.003052	-0.004883
55.029	-0.022888	-0.051575	-0.12405	0.016632	0.023956	0.079803	-0.23804	0.071564	-0.18646	-0.17288	0.026245	-0.001068	-0.092468	-0.16052	-0.02655	-0.013275	-0.062866	0.3743	0.001373	-0.17349	0.20615	-0.011444	-0.079346	0.12955	0.032959	-0.006866	0.003357	-0.009155	0.043793	0.03006	0.001831	-0.005493
55.03	-0.02594	-0.078278	-0.14282	0.00946	0.022736	0.13184	-0.17777	0.092773	0.15076	-0.121	0.000916	0.014954	-0.075378	-0.098877	0.004883	-0.010071	-0.007782	0.35904	-0.23727	-0.11124	0.18005	-0.037842	-0.066833	0.074921	0.01358	-0.012817	0.005188	-0.013428	0.055389	0.061035	0.000458	-0.010071
55.031	-0.011749	-0.097809	-0.24475	0.006104	0.010986	0.14053	-0.1091	0.037231	0.35904	-0.050964	-0.003815	0.003204	-0.08316	-0.007019	0.10819	-0.00885	-0.00824	0.35248	-0.19562	-0.083313	0.15137	-0.061646	-0.062408	0.071106	0.005035	-0.00946	-0.044403	-0.005951	0.067291	0.017548	0.001526	-0.004578
55.032	-0.012512	-0.062866	-0.26977	0.008698	0.005951	0.17471	-0.018768	0.002289	0.15991	0.09201	-0.001526	0.010681	-0.1178	0.031738	0.12512	0.000305	-0.010071	0.34759	0.016937	-0.12497	0.13779	-0.075684	-0.061493	0.007782	0	-0.00824	-0.040131	-0.006561	0.056763	-0.004578	-0.001068	-0.007477
55.033	-0.008698	-0.018768	-0.1622	0.005035	0.015411	0.14114	0.099945	-0.033875	0.10605	0.35873	-0.00885	-0.015106	-0.031128	0.010681	0.017395	-0.007782	-0.035706	0.34393	-0.19028	-0.13489	0.13657	-0.07431	-0.074615	0.049591	0.005951	-0.010529	-0.049591	-0.00412	0.030518	-0.007019	-0.001831	0.001526
55.034	0	-0.001678	-0.093384	-0.009003	0.011139	0.11261	0.22293	-0.022583	0.090485	0.2945	-0.014954	-0.014801	0.17853	0.092316	0.001221	0.009308	-0.002441	0.27924	-0.40649	-0.16556	0.1413	-0.064697	-0.096741	0.017548	0.000763	-0.011444	-0.05249	-0.003662	0.026093	0.001984	0.000916	-0.019226
55.035	0.006104	-0.016327	-0.10956	0.000763	0.015564	0.13596	0.10361	-0.010071	0.034943	0.11688	-0.003052	0.003815	0.15595	-0.039978	0.013123	-0.002899	0.006714	0.26443	-0.39597	-0.11932	0.14801	-0.080719	-0.090027	0.012665	0.003052	-0.01358	-0.020905	-0.002136	-0.05661	0.009308	0.011597	-0.012054
55.036	0.000305	0.023651	0.020599	-0.032501	0.028992	0.17181	0.057373	-0.007782	-0.14755	0.0354	-0.000305	0.041046	0.080872	-0.21316	0.024719	-0.010529	-0.003357	0.29968	0.12909	0.005493	0.15152	-0.07843	-0.09964	0.012512	-0.01297	-0.013123	0.033264	-0.005798	-0.13489	-0.002594	0	-0.014954
55.037	-0.003357	0.010681	-0.001678	-0.019684	0.039368	-0.019684	-0.026855	-0.028534	-0.3183	0.036621	0.019989	-0.002899	-0.008392	-0.24918	-0.007782	-0.002899	0.024261	0.28351	-0.21545	0.22995	0.13672	-0.074463	-0.09613	-0.029602	-0.002594	-0.012207	-0.045776	-0.00473	-0.095978	-0.001221	-0.000305	-0.010681
55.038	0.017548	0.030823	0.14465	0.003204	0.041962	0.097046	0.023346	-0.032806	-0.22812	0.034332	0.035706	-0.026703	0.023804	-0.085754	-0.00824	-0.013885	0.045319	0.25696	-0.094604	0.36957	0.14877	-0.074768	-0.095673	-0.040436	0.002899	-0.00946	-0.081482	-0.003204	0.14771	-0.001678	0.000458	-0.012665
55.039	0.02182	0.082703	0.23377	0.007324	0.041656	0.17349	0.084381	-0.034943	-0.036926	-0.002594	0.024719	-0.010834	0.24674	0.053558	-0.007477	-0.013275	0.06897	0.15366	-0.19867	0.2626	0.14191	-0.077209	-0.10529	-0.019684	0.016022	-0.005188	0.097046	-0.00946	0.45166	0.012054	0.001678	-0.01297
55.04	0.030823	0.15198	0.20966	0.032349	0.008087	0.10193	0.068359	-0.013275	0.019684	0.024872	0.008392	-0.005798	0.058746	-0.022888	0.023346	-0.00412	0.040894	0.088654	-0.30807	0.17471	0.12741	-0.056152	-0.10391	-0.015717	0.009918	-0.011444	0.28153	-0.00351	0.2829	-0.023651	-0.000305	-0.016022
55.041	0.03479	0.19562	0.18005	-0.01358	0.00473	-0.13931	0.049896	-0.001678	0.049591	0.023651	-0.011902	-0.002289	-0.27969	0.057373	0.018158	0.001221	0.034332	0.071869	-0.12955	0.18768	0.14877	-0.033875	-0.087128	-0.032501	0.023804	-0.009766	0.59372	0.006104	0.099182	-0.061798	0.000458	-0.007782
55.042	0.023499	0.2388	0.13504	-0.032654	0.007477	-0.1152	0.15533	0.015259	0.060577	0.032196	-0.003357	-0.018616	-0.18188	0.05661	0.016937	0.024567	0.040131	0.12085	-0.09201	0.17853	0.13611	-0.032501	-0.084534	0.025024	0.040741	-0.0177	0.42435	-0.002747	-0.032959	-0.050659	-0.000153	-0.016632
55.043	0.015411	0.22217	0.16876	-0.00351	0.010834	0.011139	0.29984	0.023041	0.039825	0.033722	0.00824	0	0.29144	0.018616	0.018616	0.009003	0.035095	0.012665	-0.62683	0.23651	0.1471	-0.036316	-0.077057	-0.028229	0.023499	-0.010376	-0.29388	-0.005951	-0.16739	-0.066833	0	-0.010071
55.044	0.006256	0.15259	0.15106	0.037994	-0.023956	-0.091553	0.26947	0.045624	-0.018768	0.015411	-0.012512	-0.013428	0.64835	0.057983	0.089111	0.011597	0.014191	0.003815	-0.6691	0.25711	0.15106	-0.05127	-0.072327	-0.058899	0.013885	-0.011902	-0.42648	-0.003052	0.018768	-0.061646	-0.005341	-0.010529
55.045	-0.005646	0.1593	0.224	0.016479	-0.025177	-0.08728	0.16632	0.027313	-0.046997	0.010529	0.016937	-0.002899	-0.072632	0.057526	0.12436	-0.011139	0.012054	0.026245	-0.48355	0.064087	0.15121	-0.027008	-0.080109	-0.073242	0.018311	0.001068	0.068512	-0.006866	-0.031586	-0.054779	-0.004578	-0.003967
